# xmcd
#
# Track frame offsets: 
#        150
#        16091
#        28090
#        52175
#        67529
#        83607
#        102859
#        126829
#        137139
#
# Disc length: 2028 seconds
#
# Revision: 0
# Processed by: cddbd v1.5.2PL0 Copyright (c) Steve Scherf et al.
# Submitted via: ExactAudioCopy v0.95b4
#
DISCID=6b07ea09
DTITLE=Carvin Jones - Live at Skegness Rock and Blues Festival
DYEAR=2007
DGENRE=Blues
TTITLE0=Ran Out Of Money
TTITLE1=Love Struck Baby
TTITLE2=Money Lovin' Women
TTITLE3=Down The Road I Go
TTITLE4=Still Raining
TTITLE5=Peace In The Mississippi
TTITLE6=Stones In My Passway
TTITLE7=Fannie Mae
TTITLE8=Baby What U Want Me To Do
EXTD=
EXTT0=
EXTT1=
EXTT2=
EXTT3=
EXTT4=
EXTT5=
EXTT6=
EXTT7=
EXTT8=
PLAYORDER=
